<svg width="420" height="206" viewBox="0 0 420 206" fill="none" xmlns="http://www.w3.org/2000/svg">
<mask id="mask0_500_500" style="mask-type:alpha" maskUnits="userSpaceOnUse" x="0" y="0" width="420" height="206">
<rect width="420" height="206" fill="black"/>
</mask>
<g mask="url(#mask0_500_500)">
<path d="M-82.5 172.64C-82.5 172.64 51.2 91.82 139.88 118.73C155.38 124.11 108.54 123.98 103.02 105.84C102.1 102.82 102.88 99.54 104.81 97.05C122.27 74.48 162.22 114.24 261.33 67.66V26.5C261.33 24.84 259.99 23.5 258.33 23.5H234.31C232.65 23.5 231.31 24.84 231.31 26.5V30.51C231.31 32.17 229.97 33.51 228.31 33.51H184.28C182.62 33.51 181.28 32.17 181.28 30.51V26.5C181.28 24.84 179.94 23.5 178.28 23.5H151.5C149.84 23.5 148.5 24.84 148.5 26.5V177.16C148.5 180.14 150.92 182.56 153.9 182.56H255.92C258.9 182.56 261.32 180.14 261.32 177.16V142.76C261.32 141.62 260.67 140.57 259.65 140.07C255.45 138 242.61 134.01 213.31 141.05C208.99 142.09 204.48 142.24 200.17 141.18C188.38 138.28 186.84 129.5 178.4 131.26C168.89 133.24 179.51 137.72 191.28 132.64C192.34 132.18 193.04 131.15 193.07 130C193.24 123.72 193.13 113.57 193.06 108.53C193.04 106.86 194.39 105.49 196.06 105.49H216.23C217.89 105.49 219.23 106.83 219.23 108.49V126.18C219.23 127.84 220.57 129.18 222.23 129.18H227.73C229.39 129.18 230.73 127.84 230.73 126.18V87.9C230.73 86.24 232.07 84.9 233.73 84.9H254.53C256.19 84.9 257.53 86.24 257.53 87.9V125.26C257.53 126.92 258.87 128.26 260.53 128.26H265.92C267.58 128.26 268.92 126.92 268.92 125.26V63.75C268.92 62.09 270.26 60.75 271.92 60.75H294.43C296.09 60.75 297.43 62.09 297.43 63.75V127.46C297.43 128.36 297.82 129.21 298.52 129.78C301.74 132.39 312.71 138.25 339.48 128.21C372.6 115.79 399.34 74.97 440.4 82.74" stroke="#A8A8A8" stroke-linecap="round" stroke-linejoin="round"/>
</g>
</svg>
