<svg width="420" height="257" viewBox="0 0 420 257" fill="none" xmlns="http://www.w3.org/2000/svg">
<mask id="mask0_500_480" style="mask-type:alpha" maskUnits="userSpaceOnUse" x="0" y="0" width="420" height="257">
<rect width="420" height="257" fill="black"/>
</mask>
<g mask="url(#mask0_500_480)">
<path d="M-5.58984 98.1905L10.7502 74.4505C19.6602 61.5805 29.4002 49.2005 40.4202 38.0505C56.3302 21.9505 75.9901 7.2205 98.8401 3.4005C111.6 1.2705 125.29 2.8705 136.79 8.9905C146.28 14.0505 151.84 24.5305 161.87 28.6505C185.19 38.2305 213.83 38.6105 238.09 35.7005C242.2 35.2105 246.22 34.1105 249.94 32.2905C252.21 31.1805 254.79 29.4505 253.64 26.1005C253.32 25.1605 252.72 24.3205 251.98 23.6605C244.12 16.6305 233.18 14.7905 222.77 14.0805C210.04 13.2105 197.13 13.6705 184.7 16.5405C174.96 18.7905 164.49 23.5705 161.23 33.0105C158.25 41.6305 162.36 51.0005 167.06 58.8205C189.44 96.0405 226.88 122.92 246.51 161.65C250.14 168.8 253.17 176.911 251.31 184.711C249.74 191.271 244.8 196.69 238.92 199.98C232.83 203.39 225.78 204.751 218.83 205.331C207.59 206.261 196.26 205.131 185.36 202.221C178.35 200.341 170.86 197.461 166.85 191.331C163.83 186.731 163.24 180.941 163.53 175.451C164.76 152.301 179.85 132.301 196.01 115.681C212.17 99.0505 230.43 83.6605 240.97 63.0105C244.49 56.1105 247.07 47.8405 243.99 40.7305C240.28 32.1705 230.03 28.7405 220.8 27.3605C209.66 25.6905 197.67 25.7605 187.9 31.3505C175.6 38.3805 170.78 53.5905 179.03 65.4005C186.76 76.4705 199.86 81.4005 213.09 80.2005C240.23 77.7305 222.03 62.5205 211.03 70.7405C204.24 75.8205 195.52 109.801 220.6 141.051C245.68 172.301 259.28 180.001 211.99 186.171C164.7 192.341 166.15 166.561 181.97 165.201C204.19 163.301 201.3 133.541 214.45 149.571C220.49 156.931 225.25 165.211 230.57 173.071C235.89 180.931 241.05 184.14 249.16 189.43C251.94 191.24 253.94 194.131 254.35 197.421C255.18 204.061 249.15 206.541 244.53 207.911C240.45 209.121 236.25 209.85 232 210.12C216.78 211.1 201.52 210.981 186.27 210.861C176.86 210.781 167.44 210.711 158.1 209.551C155.23 209.201 152.27 208.701 150.04 206.741C148.85 205.691 148.01 204.26 147.91 202.68C147.68 198.91 151.52 196.94 154.39 195.76C159.19 193.77 164.3 192.631 169.48 192.241C210.36 189.191 253.26 194.891 293.66 201.921C293.66 201.921 426.14 225.881 460.35 290.73" stroke="#A8A8A8" stroke-miterlimit="10"/>
</g>
</svg>
