<svg width="420" height="281" viewBox="0 0 420 281" fill="none" xmlns="http://www.w3.org/2000/svg">
<mask id="mask0_500_504" style="mask-type:alpha" maskUnits="userSpaceOnUse" x="0" y="0" width="420" height="281">
<rect width="420" height="281" fill="black"/>
</mask>
<g mask="url(#mask0_500_504)">
<path d="M-22.4502 99.26C-22.4502 99.26 34.3798 88.94 68.8398 122.64C103.3 156.34 128.42 168.79 208.43 167.69L255.95 167.78C260.44 167.78 263.04 164.12 262.99 159.64V39.04C262.93 34.27 259.04 30.45 254.28 30.46L183.16 30.68C178.33 30.7 175.27 34.65 175.34 39.48V180.39C175.41 185.66 179.69 189.9 184.97 189.92L261.34 189.65C266.74 189.67 270.73 185.25 270.66 179.85V20.62C270.57 14.5 264.22 9.59004 258.1 9.57004L246.54 9.54004C242.68 9.54004 239.14 11.65 237.32 15.06L234.46 20.43C233.54 22.16 231.72 23.23 229.76 23.2L209.8 22.86C208.28 22.83 207.04 21.63 206.98 20.11C206.91 18.46 208.25 17.09 209.9 17.12L229.62 17.49C231.27 17.52 232.79 16.64 233.59 15.19C234.88 12.84 233.18 9.97004 230.5 9.97004H179.96C173.79 10.03 167.82 15.62 167.86 21.8V170.31C167.86 186.15 169.96 197.75 183.78 207.08C196.42 215.62 212.17 218.77 227.13 219.88C278.06 223.67 386.85 223.89 423.87 280.4" stroke="#A8A8A8" stroke-width="1.1" stroke-linecap="round" stroke-linejoin="round"/>
</g>
</svg>
