<svg width="420" height="206" viewBox="0 0 420 206" fill="none" xmlns="http://www.w3.org/2000/svg">
<mask id="mask0_500_490" style="mask-type:alpha" maskUnits="userSpaceOnUse" x="0" y="0" width="420" height="206">
<rect width="420" height="206" fill="#F3F4F6"/>
</mask>
<g mask="url(#mask0_500_490)">
<path d="M438.49 179.69C339.44 219.12 280.42 179.69 280.42 179.69C266.79 170.37 251.2 164.04 235.29 159.8C230.28 158.47 225.22 157.34 220.13 156.41C217.3 155.89 214.46 155.44 211.61 155.02C205.53 154.12 200.62 152.41 196.5 147.53C195.04 145.8 194.09 143.73 193.99 141.45C193.71 134.98 198.79 127.3 207.21 126.7C218.87 125.87 225.67 139.85 217.36 148.07C213.76 151.63 210.48 152.25 205.29 149.19C205.29 149.19 197.23 143.92 202.12 136.01C211.19 121.36 216.51 144.27 222.14 134.13C228.08 123.44 217.15 115.31 207.13 116.68C198.31 117.88 189.06 119.46 181.53 124.53C177.38 127.33 174.02 131.5 168.95 132.68C164.55 133.71 159.51 132.19 158.33 127.37C156.64 120.43 159.27 108.41 190.05 99.9698C220.83 91.5198 242.98 105.04 250.11 115.55C257.24 126.06 265.69 116.11 264.37 111.05C262.26 102.9 252.79 96.5598 245.87 92.9498C234.68 87.1198 222.6 85.2898 210.12 85.2098C198.47 85.1398 186.6 86.7198 175.63 90.7598C168.17 93.5098 160.83 97.5098 155.52 103.54C152.78 106.64 149.19 109.93 144.9 110.47C141.12 110.95 136.9 108.69 135.79 104.91C134.08 99.0898 139.04 91.5898 142.85 87.4298C147.89 81.9098 154.47 77.9298 161.21 74.8298C183.96 64.3898 211.2 60.7598 235.1 69.3398C236.16 69.7198 237.22 70.1298 238.27 70.5598C249.65 75.2298 259.72 82.5398 268.91 90.6198C272.24 93.5498 275.95 97.5898 280.5 98.4598C284.84 99.2898 287.46 94.9298 287.64 91.1398C287.88 86.2898 282.22 82.2898 278.87 79.3998C270.14 71.8598 259.8 66.3898 249.17 62.0498C245.8 60.6698 242.38 59.4098 238.93 58.2198C236.81 57.4898 234.67 56.8098 232.51 56.1898C208.43 49.2698 183.48 51.9098 161.08 63.0298C155.27 65.9098 149.64 69.3098 144.59 73.3898C142.23 75.2998 140.05 77.3598 138.2 79.7798C134.62 84.4498 131.29 90.0098 125.3 91.8098C119.8 93.4598 115.71 89.9698 113.84 84.9698C109.15 72.3998 140.49 41.0498 192.48 34.1098C213.57 31.2898 235.01 34.5398 254.37 43.3498C267.5 49.3198 279.45 57.6198 290.09 67.3198C294.21 71.0798 300.28 76.8798 306.07 72.6298C309.71 69.9498 311.33 64.2998 310.15 60.0098C308.09 52.4998 291.19 26.4198 246.53 16.8398C226.14 12.4698 205.04 10.5698 184.39 14.2798C161.05 18.4798 138.5 29.9498 120.49 45.2898C115.2 49.7898 111.21 55.1998 107.31 60.8798C104 65.6998 99.68 70.2998 93.92 72.0298C85.93 74.4298 77.94 70.1498 71.23 66.1998C71.23 66.1998 22.74 27.2798 -17.7 59.8298" stroke="#A8A8A8" stroke-miterlimit="10"/>
</g>
</svg>
