<svg width="420" height="355" viewBox="0 0 420 355" fill="none" xmlns="http://www.w3.org/2000/svg">
<mask id="mask0_500_508" style="mask-type:alpha" maskUnits="userSpaceOnUse" x="0" y="0" width="420" height="355">
<rect width="420" height="355" fill="black"/>
</mask>
<g mask="url(#mask0_500_508)">
<path d="M507.18 54.3031C507.18 54.3031 469.65 9.11313 397.65 84.9431C385.21 98.0531 370.16 111.293 352.22 115.913C340.3 118.983 328.09 116.943 318.02 109.843C310.86 104.803 305.29 97.8131 300.87 90.3231C297.25 84.1731 290.77 76.4531 292.32 68.8131C293.54 62.7931 298.28 58.3131 302.04 53.7631C306.2 48.7331 309.4 42.3031 310.09 35.7331C310.44 32.4231 310 28.9731 308.64 25.9231C307.09 22.4531 304.68 20.8031 301.57 18.8631C294.65 14.5531 285.91 13.3431 278.89 18.1431C274.91 20.8631 272.06 25.5731 272.03 30.4531C272 34.9831 275.05 39.6131 278.64 42.1931C282.11 44.6931 287.42 46.1831 291.63 44.8631C295.52 43.6531 298.48 40.0931 300.16 36.5331C302.7 31.1431 302.77 24.8031 301.24 19.1131C300.98 18.1331 300.61 17.1831 300.14 16.2931C293.28 3.27313 269.68 6.82313 263.23 18.3731C261.13 22.1231 260.9 26.6931 261.71 30.9031C263.02 37.6731 266.41 44.2431 269.69 50.2631C273.73 57.6731 278.35 64.7531 283.05 71.7531C286.21 76.4731 289.81 81.1131 292.4 86.1831C293.68 88.7031 293.68 91.5031 291.53 93.5231C289.52 95.4131 286.4 96.5231 283.81 95.2631C280.13 93.4831 277.45 88.5231 280.9 85.1931C281.86 84.2631 283.06 83.6331 284.26 83.0331C284.58 84.3631 283.79 85.7731 282.65 86.5331C281.51 87.2931 280.1 87.5031 278.73 87.5631C276.13 87.6731 273.53 87.2831 270.94 86.9531C266.38 86.3831 261.78 86.0131 257.18 86.0931C253.44 86.1631 249.83 86.9231 246.13 87.5031C231.94 89.7231 218.39 94.7831 208.9 105.923C182.35 137.073 301.84 135.543 335.54 172.303C369.24 209.073 237.26 209.583 186.2 208.043C135.14 206.513 133.29 190.783 167.31 145.233C180.78 127.193 181.39 102.733 161.42 89.2231C144.44 77.7431 118.21 80.4031 111.89 102.583C104.84 127.343 128.97 140.473 149.95 131.953C166.29 125.313 172.42 94.6731 147.2 76.8031C126.37 62.0431 97.43 75.5331 91.31 99.5431C89.18 107.893 90.45 116.813 93.35 124.923C102.14 149.503 119.48 172.593 135.14 193.233C139.47 198.933 144.32 204.693 146.64 211.583C148.87 218.193 146.93 226.173 139.21 227.953C133.76 229.213 127.66 225.743 125.87 220.443C124.66 216.853 125.52 212.753 127.74 209.733C129.32 207.583 135.05 203.013 137.07 207.063C137.69 208.303 137.54 209.763 137.38 211.133C136.27 220.733 134.81 230.223 133.26 239.763C130.75 255.163 126.72 270.423 120.43 284.733C113.52 300.473 103.71 315.173 90.24 326.033C74.63 338.623 55.18 344.703 35.27 345.333C20 345.813 4.73 343.383 -10 339.463" stroke="#A8A8A8" stroke-width="1.1" stroke-linecap="round" stroke-linejoin="round"/>
</g>
</svg>
