<svg width="420" height="206" viewBox="0 0 420 206" fill="none" xmlns="http://www.w3.org/2000/svg">
<mask id="mask0_500_485" style="mask-type:alpha" maskUnits="userSpaceOnUse" x="0" y="0" width="420" height="206">
<rect width="420" height="206" fill="black"/>
</mask>
<g mask="url(#mask0_500_485)">
<path d="M474.53 55.0001C419.61 129.27 300.59 104.92 266.77 116C232.95 127.08 232.88 143.78 229.2 160.77C225.52 177.76 217.49 176.02 209.43 178.64C201.37 181.26 196.12 176.67 201.22 172.6C206.31 168.53 220.94 173.22 221.55 165.03C222.16 156.84 204.81 164.12 199.27 165.47C193.73 166.82 190.79 161.89 199.51 159.32C208.23 156.76 221.74 158.68 224.13 153.31C226.52 147.94 218.67 144.14 203.81 150.22C188.7 156.41 186.66 149 191.12 147.23C215.66 137.33 194.67 89.6201 192.29 84.3301C189.91 79.0401 179.34 82.9301 182.17 90.0601C185 97.2001 195.6 97.0001 204.23 93.1601C212.86 89.3201 214.2 78.7701 210.94 74.3501C207.69 69.9301 201.52 73.1701 202.13 82.8001C202.74 92.4301 220.56 94.1701 226.82 92.2101C233.08 90.2501 234.68 78.9901 223.96 82.2601C213.24 85.5301 219.84 126.64 220.65 135.35C221.46 144.06 185.8 149.33 184.09 134.16C180.16 99.3001 150.97 81.8901 158.43 50.3901C165 22.6201 185.63 12.2201 208.23 11.5301C238.42 10.6101 256.84 30.2101 262.86 57.2001C275.91 115.72 223.59 139.58 186.95 133.27C152.75 127.38 99.5 119.36 73.86 151.29C64.07 163.47 62.94 178.52 51.12 189.68C36.46 203.52 16.15 174.76 -3.39 177.48C-13.2 178.85 -23.11 214.31 -33 214.22" stroke="#A8A8A8" stroke-miterlimit="10"/>
</g>
</svg>
